<svg xmlns="http://www.w3.org/2000/svg" viewBox="0 0 397.65 413.23"><defs><style>.cls-1{opacity:0.3;}.cls-2,.cls-4{fill:#000072;}.cls-10,.cls-11,.cls-12,.cls-2,.cls-3,.cls-6,.cls-7,.cls-9{fill-rule:evenodd;}.cls-3{fill:#1574ff;}.cls-5{opacity:0.5;}.cls-13,.cls-6{fill:#fff;}.cls-7{fill:#ff6f03;}.cls-8{opacity:0.52;}.cls-9{fill:#f961ba;}.cls-10{fill:#ff1f45;}.cls-11{fill:#e5e5e5;}.cls-12{fill:#633;}.cls-14{fill:#b199c5;}.cls-15{fill:#eb5463;}</style></defs><title>logo 17</title><g id="图层_2" data-name="图层 2"><g id="Layer_1" data-name="Layer 1"><g class="cls-1"><path class="cls-2" d="M364.62,291.28,8.24,395.26l22.44,18H345.21a14.16,14.16,0,0,0,12.8-8.1l38.26-80.52a14.18,14.18,0,0,0-5.71-18.36Z"/></g><path class="cls-3" d="M372.24,305.46c7.24-10.09.25-75.41-6.62-75H71.23L3.68,330.08C1.62,337.91,5,342.7,18.31,341.9v38.88c-15.59,0-13.37,15.87-1.43,15.87H331.43Z"/><path class="cls-4" d="M331.43,399.77H16.88c-8,0-12.74-5.71-12.74-11.23A9.85,9.85,0,0,1,8,380.76a14.67,14.67,0,0,1,7.24-2.9V345.11c-6.28-.06-10.54-1.56-13-4.55C-.06,337.8-.58,334,.66,329.29a3.08,3.08,0,0,1,.43-1L68.64,228.7a3.12,3.12,0,0,1,2.59-1.37H365.56c2-.07,3.64,1.14,5,3.58,6.16,11.21,11.63,64.93,4.44,76.07l-40.7,90.94A3.14,3.14,0,0,1,331.43,399.77Zm-313.12-61a3.14,3.14,0,0,1,3.13,3.12v38.88a3.13,3.13,0,0,1-3.13,3.12c-3.56,0-5.47.94-6.44,1.72a3.68,3.68,0,0,0-1.48,2.92c0,2.42,2.27,5,6.49,5H329.4l40-89.34a2.9,2.9,0,0,1,.31-.54c2.06-2.86,3.46-15.48,1.68-36.41-1.58-18.56-4.66-31-6.49-33.66h-292L6.57,331.38c-.56,2.41-.41,4.17.46,5.22s3.38,2.65,11.1,2.19ZM365.8,233.57h0Z"/><g class="cls-5"><path class="cls-6" d="M26.13,297,3.68,330.08C1.77,337.33,4.52,342,15.52,342h.34c.78,0,1.59,0,2.45-.09V342l299.77-.09,4.53-7.38-305.29.81q-5.61,1.07-3.78-3.19Q18.63,321.63,31.22,303q-2.59-3.31-5.09-6.07"/></g><g class="cls-5"><path class="cls-6" d="M19.17,390.51a4.87,4.87,0,0,1,0-9.73h-.86c-15.59,0-13.38,15.86-1.43,15.86H328.71c-17.17-.87-29.28-2.08-38.51-3.61Z"/></g><g class="cls-1"><path class="cls-2" d="M364.13,230.45H71.22L26.86,295.88q23,43.25,78.29,15.5,27.48.67,28.47-15.45,22,3.49,34.15,1.16-5.42,51.48,78.51,45.25c1.9,10.79,13.81,24.76,7.38,38.44,18.06,8,25.27,13.32,75,15.86,1.11-.42,2.2-.86,3.29-1.28l40.24-89.9c7.24-10.09.25-75.41-6.62-75Z"/></g><path class="cls-6" d="M358.91,248.28c5-9.11,12.06,42,6.82,49.47l-41.94,83H18.31V341.9H319.5Z"/><path class="cls-4" d="M323.79,383.9H18.31a3.12,3.12,0,0,1-3.12-3.12V341.9a3.12,3.12,0,0,1,3.12-3.12H317.43L356,247.07c0-.1.09-.19.14-.29a4.53,4.53,0,0,1,4.05-2.7c1.81,0,3.32,1.2,4.49,3.5,2.7,5.27,4.6,17.5,5.41,26.36.83,9.13,1.2,20.87-1.68,25.38l-41.86,82.86A3.11,3.11,0,0,1,323.79,383.9ZM21.44,377.65H321.87L363,296.34a2.88,2.88,0,0,1,.22-.38c1-1.42,2-9,.54-23.39a109.31,109.31,0,0,0-3.49-19.37l-37.84,89.92A3.14,3.14,0,0,1,319.5,345H21.44Z"/><g class="cls-1"><path class="cls-2" d="M314.28,380.78H203.81c40.3-2.46,47.85-20.37,24.74-31.68h83.56Z"/></g><g class="cls-1"><path class="cls-2" d="M358.91,248.28c5-9.11,12.06,42,6.82,49.47l-41.94,83h-1.61q-1-16.92-4.1-38.88h1.42Z"/></g><path class="cls-4" d="M331.43,399.77H16.88c-8,0-12.74-5.71-12.74-11.23A9.85,9.85,0,0,1,8,380.76a14.67,14.67,0,0,1,7.24-2.9V345.11c-6.28-.06-10.54-1.56-13-4.55C-.06,337.8-.58,334,.66,329.29a3.08,3.08,0,0,1,.43-1L68.64,228.7a3.12,3.12,0,0,1,2.59-1.37H365.56c2-.07,3.64,1.14,5,3.58,6.16,11.21,11.63,64.93,4.44,76.07l-40.7,90.94A3.14,3.14,0,0,1,331.43,399.77Zm-313.12-61a3.14,3.14,0,0,1,3.13,3.12v38.88a3.13,3.13,0,0,1-3.13,3.12c-3.56,0-5.47.94-6.44,1.72a3.68,3.68,0,0,0-1.48,2.92c0,2.42,2.27,5,6.49,5H329.4l40-89.34a2.9,2.9,0,0,1,.31-.54c2.06-2.86,3.46-15.48,1.68-36.41-1.58-18.56-4.66-31-6.49-33.66h-292L6.57,331.38c-.56,2.41-.41,4.17.46,5.22s3.38,2.65,11.1,2.19ZM365.8,233.57h0Z"/><path class="cls-4" d="M323.79,383.9H18.31a3.12,3.12,0,0,1-3.12-3.12V341.9a3.12,3.12,0,0,1,3.12-3.12H317.43L356,247.07c0-.1.09-.19.14-.29a4.53,4.53,0,0,1,4.05-2.7c1.81,0,3.32,1.2,4.49,3.5,2.7,5.27,4.6,17.5,5.41,26.36.83,9.13,1.2,20.87-1.68,25.38l-41.86,82.86A3.11,3.11,0,0,1,323.79,383.9ZM21.44,377.65H321.87L363,296.34a2.88,2.88,0,0,1,.22-.38c1-1.42,2-9,.54-23.39a109.31,109.31,0,0,0-3.49-19.37l-37.84,89.92A3.14,3.14,0,0,1,319.5,345H21.44Z"/><path class="cls-4" d="M18.31,351.18c7.08-.69,14.17-1,21.25-1.24s14.16-.28,21.24-.22c3.54,0,7.08,0,10.62.12l5.31.1,5.31.15c7.08.23,14.16.53,21.24,1.09a.76.76,0,0,1,.69.81.75.75,0,0,1-.69.68c-7.08.56-14.16.86-21.24,1.09l-5.31.16-5.31.1c-3.54.08-7.08.09-10.62.11-7.08.07-14.16,0-21.24-.22s-14.17-.55-21.25-1.24a.75.75,0,0,1-.67-.82A.76.76,0,0,1,18.31,351.18Z"/><path class="cls-4" d="M50.37,366.59q22.59-.69,45.18-.88t45.17-.16l22.58.08,11.3.07,11.29.13,22.59.29c7.53.16,15.05.26,22.58.47a.54.54,0,0,1,0,1.07c-7.53.22-15.05.32-22.58.48l-22.59.28-11.29.13-11.3.08-22.58.08q-22.59.06-45.17-.16t-45.18-.89a.54.54,0,0,1,0-1.07Z"/><path class="cls-4" d="M321.83,383.9a3.13,3.13,0,0,1-3.12-2.94l-2.33-38.87a3.13,3.13,0,0,1,6.24-.37L325,380.59a3.12,3.12,0,0,1-2.93,3.3Z"/><path class="cls-4" d="M275.53,357.09q5.63-.3,11.23-.51c3.75-.14,7.49-.27,11.24-.37s7.48-.19,11.23-.26,7.48-.15,11.23-.19L318.57,357c3.54-8.46,7.19-16.86,10.85-25.27s7.37-16.79,11.14-25.14c1.86-4.19,3.76-8.36,5.66-12.53s3.81-8.35,5.74-12.5q5.78-12.48,11.79-24.86a.75.75,0,0,1,1-.34.73.73,0,0,1,.36.93c-3.29,8.56-6.71,17.07-10.19,25.56q-2.6,6.36-5.26,12.71t-5.33,12.67c-3.56,8.45-7.2,16.86-10.84,25.28s-7.35,16.79-11.14,25.14l0,.05a2,2,0,0,1-1.87,1.19c-3.74,0-7.49-.1-11.23-.18s-7.49-.15-11.23-.26-7.49-.22-11.24-.36-7.48-.31-11.23-.51a.74.74,0,0,1-.7-.78A.76.76,0,0,1,275.53,357.09Z"/><path class="cls-6" d="M344.3,240.08c-12.86-137-147.21-151.6-254-53.89-32.4,29.64-20.21,80.25,26.89,98.25q47-.65,80.76-.45c-28.43,7.91-24,48.32,40.67,43.2C333.46,319.69,358.38,279.61,344.3,240.08Z"/><path class="cls-7" d="M194.63,284l3.31,0c-28.43,7.91-24,48.32,40.67,43.2,3.69-.29,7.27-.64,10.75-1,11.18-4.31,7.84-39.51-7.49-44.1q-25.16,1.85-47.24,1.91"/><g class="cls-1"><path class="cls-2" d="M344.3,240.08C338.89,182.51,309.94,136.49,255,125.6v0c-49.69-12.1-108.58,9.3-164.66,60.62a58.84,58.84,0,0,0-7.43,8.16C153.76,213.7,195.32,205,219.54,190a47.06,47.06,0,0,0-7.31,20.72c.16-.09.7.84,1.8,3q2.19,4.38,3.85,8.57a46.64,46.64,0,0,1,60.44-49.56,19.12,19.12,0,0,1,1.94.69,47.19,47.19,0,0,0-40.94-.64,63.15,63.15,0,0,1-5.72,6.09,72.57,72.57,0,0,0,16.26-24.51,12.67,12.67,0,0,1,13.9-7.91q53.94,9.44,71.94,98C358.86,290,266,337.54,184,311.65c6.27,9.93,23.44,18,54.57,15.54C333.46,319.69,358.38,279.61,344.3,240.08Z"/></g><path class="cls-4" d="M227.7,330.77c-32.86,0-47.15-12.94-49.28-25-1.25-7.09,1.49-13.84,7.06-18.71-19.66,0-42.55.14-68.26.49a3,3,0,0,1-1.16-.2C91.49,278,74.28,259,70,236.56c-3.71-19.52,2.91-38.72,18.16-52.68,30-27.43,63.33-47.08,96.41-56.81,32.49-9.55,63.51-9.26,89.69.84,41.8,16.12,67.75,55.71,73.09,111.5,6.16,17.57,4.61,34.26-4.47,48.28-15.35,23.71-51.33,38.44-104,42.62Q233,330.78,227.7,330.77Zm-46-49.94q8.5,0,16.24,0a3.12,3.12,0,0,1,.82,6.13c-9.73,2.71-15.57,10-14.21,17.69,2.06,11.61,19.49,22.11,53.8,19.39,64.05-5.07,89.35-24.43,99.29-39.78,8-12.43,9.33-27.36,3.69-43.17a3.24,3.24,0,0,1-.16-.75c-5-53.51-29.58-91.38-69.16-106.65-52-20-120.8.94-179.64,54.76C78.77,201,72.85,218,76.15,235.39,80,255.5,95.5,272.63,117.74,281.31,141.61,281,163.05,280.83,181.72,280.83Z"/><path class="cls-7" d="M168.85,268a22.22,22.22,0,0,1-13.59,2.4c-9.09-1.18-19.64-7.54-29.57-22.06-1.74,1.22-3.7,2.49-5.9,3.8q-6.56,3.88-15.86,8.26c0,.43,0,.85,0,1.27h.22c14.61,0,26.45,8.29,26.45,18.51a13.37,13.37,0,0,1-.66,4.13q21.63-.25,40.23-.31a59.3,59.3,0,0,0-1.3-16"/><g class="cls-1"><path class="cls-2" d="M102.91,277.38a82.1,82.1,0,0,0,14.27,7.06q42.82-.58,74.67-.48,5-3.54,9.94-7.69-52.78,10.2-90.88-4.86-5.61-3.6,5.37-7.7,60.18,31.67,72.35-9.43c3.78-35.92-39.38-51.38-69.47-27.29q77.58,11.67-15.26,29.86a140.29,140.29,0,0,1-1,20.53"/></g><g class="cls-8"><path class="cls-6" d="M182.89,309.59c-7.68-25,18.9-33.32,65.45-25-44.39,3.33-68.83,5.48-65.45,25"/></g><path class="cls-6" d="M77.26,249a62.39,62.39,0,0,0,12.31,17.75q24.77-10.35,36.12-18.39c37.3,54.53,83.22-6,28.42-23.93C132.84,217.44,105.87,230.78,77.26,249Z"/><path class="cls-4" d="M158.37,273.72c-11.41,0-23.39-7.47-33.46-21.11-7.78,5.06-19.24,10.76-34.14,17a3.1,3.1,0,0,1-3.43-.69,65.7,65.7,0,0,1-12.92-18.64,3.11,3.11,0,0,1,1.16-3.93c27.47-17.46,56.11-32.55,79.5-24.9,17.31,5.66,27.56,16.63,27.43,29.35a23.19,23.19,0,0,1-16.72,21.85A25.68,25.68,0,0,1,158.37,273.72ZM125.69,245.2a3.48,3.48,0,0,1,.55,0,3.12,3.12,0,0,1,2,1.31c11,16.05,24.33,23.56,35.72,20.1a17,17,0,0,0,12.28-15.93c.11-9.86-8.54-18.59-23.12-23.36-20.33-6.64-47.52,7.47-71.85,22.75A59.31,59.31,0,0,0,90.35,263c15.21-6.45,26.49-12.24,33.53-17.23A3.09,3.09,0,0,1,125.69,245.2Z"/><path class="cls-7" d="M119.79,252.12c2.2-1.31,4.16-2.58,5.9-3.8,37.3,54.53,83.22-6,28.42-23.93-10.44-3.41-22.25-1.93-35,2.6q-6,15.16.63,25.13"/><path class="cls-4" d="M300.29,248.11q5.67,7.72,6.85,13.52,1.35,6.74-3,10.93a2.92,2.92,0,1,1-4.05-4.21c5.94-4.89-7.07-30.17.22-20.24"/><path class="cls-4" d="M227.7,330.77c-32.86,0-47.15-12.94-49.28-25-1.25-7.09,1.49-13.84,7.06-18.71-19.66,0-42.55.14-68.26.49a3,3,0,0,1-1.16-.2C91.49,278,74.28,259,70,236.56c-3.71-19.52,2.91-38.72,18.16-52.68,30-27.43,63.33-47.08,96.41-56.81,32.49-9.55,63.51-9.26,89.69.84,41.8,16.12,67.75,55.71,73.09,111.5,6.16,17.57,4.61,34.26-4.47,48.28-15.35,23.71-51.33,38.44-104,42.62Q233,330.78,227.7,330.77Zm-46-49.94q8.5,0,16.24,0a3.12,3.12,0,0,1,.82,6.13c-9.73,2.71-15.57,10-14.21,17.69,2.06,11.61,19.49,22.11,53.8,19.39,64.05-5.07,89.35-24.43,99.29-39.78,8-12.43,9.33-27.36,3.69-43.17a3.24,3.24,0,0,1-.16-.75c-5-53.51-29.58-91.38-69.16-106.65-52-20-120.8.94-179.64,54.76C78.77,201,72.85,218,76.15,235.39,80,255.5,95.5,272.63,117.74,281.31,141.61,281,163.05,280.83,181.72,280.83Z"/><path class="cls-4" d="M214,213.72q9.84,19.65,9,35.49a42.22,42.22,0,0,1-12.78,28.26,3.11,3.11,0,0,1-4.42-4.39c24-19.1-.17-76.12,8.21-59.36"/><path class="cls-4" d="M151.46,254.91a39.55,39.55,0,0,1,4.78,9.19,11.76,11.76,0,0,1,.33,7.71,2.54,2.54,0,0,1-4.79-1.71c1.79-3.37-5.83-21.64-.32-15.19"/><path class="cls-6" d="M143.7,20.77c52.7,0,108.07,63.69,98.23,115.39s-42.72,56.29-95.41,56.29-93.06-1.59-95.42-56.29S91,20.77,143.7,20.77Z"/><path class="cls-4" d="M146.52,195.57c-28,0-50.68-.58-67.81-7.88C58.9,179.24,49.13,162.91,48,136.3c-1.36-31.79,12-66.33,34.79-90.16C100.37,27.77,122,17.65,143.7,17.65c26.53,0,55.1,15.39,76.43,41.16,20.21,24.42,29.51,53.56,24.87,77.94-4.85,25.45-15.45,41.27-33.37,49.77C195.74,194.06,174.93,195.57,146.52,195.57ZM143.7,23.89c-20,0-40,9.44-56.42,26.57C65.59,73.1,52.93,105.89,54.22,136c1,23.93,9.59,38.52,26.94,45.92,16,6.83,38.14,7.38,65.36,7.38,51.09,0,82.8-3.62,92.34-53.75,4.3-22.57-4.5-49.78-23.54-72.78C195.46,38.8,168,23.89,143.7,23.89Z"/><path class="cls-7" d="M151.69,21.25c41.64,4.92,82.8,47.07,90.2,89.34a73.82,73.82,0,0,1-31.37,6.9c-38.11,0-69-28.3-69-63.2a59,59,0,0,1,10.17-33"/><path class="cls-4" d="M187.59,95.86A75,75,0,0,0,179.18,99a51.63,51.63,0,0,0-7.59,4.24c-1.21.77-2.29,1.68-3.41,2.53l-1.56,1.41c-.25.24-.53.45-.77.7l-.72.77a37.9,37.9,0,0,0-5.09,6.63l-4.93-5.18.6-.26.51-.2c.34-.12.68-.25,1-.35.66-.22,1.33-.39,2-.57a32.64,32.64,0,0,1,4-.74,30.86,30.86,0,0,1,8.09.07,28.45,28.45,0,0,1,7.7,2.18,28,28,0,0,1,6.64,4.13,1.29,1.29,0,0,1-1.18,2.24l-.14,0c-1.16-.35-2.24-.8-3.37-1.11s-2.23-.62-3.37-.79a30.26,30.26,0,0,0-6.69-.57,30.61,30.61,0,0,0-6.55.76c-.54.11-1.06.26-1.59.39l-1.56.47c-.51.17-1,.34-1.51.54l-.71.3-.33.15-.25.12-.1,0a3.71,3.71,0,0,1-5-1.76,3.77,3.77,0,0,1,.14-3.46,36.55,36.55,0,0,1,6.17-8.35l.92-.93c.3-.31.65-.57,1-.85l2-1.64A37.56,37.56,0,0,1,168,97.2a35.81,35.81,0,0,1,9.53-3.43c.83-.13,1.65-.3,2.47-.41s1.65-.19,2.49-.22a25.84,25.84,0,0,1,5,.17,1.29,1.29,0,0,1,1.1,1.46,1.3,1.3,0,0,1-.89,1.06Z"/><g class="cls-1"><path class="cls-2" d="M194.47,39c31.45,22.67,54,62.6,47.46,97.18-9.84,51.71-42.72,56.29-95.41,56.29-31.47,0-58.54-.57-75.74-12.68C215.71,193.9,268.44,147.43,194.47,39"/></g><path class="cls-6" d="M62.79,81h0c12.26-26.08,33.12-47.81,58-56.33A181,181,0,0,0,84.18,5.71c-14.27-5.54-21.25-2.15-22,9.85C60.91,37.74,60.72,59.52,62.79,81Z"/><path class="cls-4" d="M62.79,84.11a3,3,0,0,1-1-.18,3.13,3.13,0,0,1-2.09-2.64c-1.89-19.6-2.07-40.55-.57-65.92C59.49,8.93,61.6,4.43,65.38,2c4.53-2.91,11.05-2.65,19.93.8a184.49,184.49,0,0,1,37.28,19.27,3.12,3.12,0,0,1-.75,5.53c-23.1,7.9-43.59,27.84-56.21,54.71a3.23,3.23,0,0,1-.58.84A3.15,3.15,0,0,1,62.79,84.11ZM72.92,6.25a7.68,7.68,0,0,0-4.17,1c-2,1.29-3.15,4.14-3.41,8.48A444.19,444.19,0,0,0,65,69.91c12.26-21.35,29.55-37.62,49-46a185.34,185.34,0,0,0-31-15.31A29.36,29.36,0,0,0,72.92,6.25Z"/><path class="cls-9" d="M74.48,60.31h0a77.39,77.39,0,0,1,30.35-29.46,94.66,94.66,0,0,0-19.17-9.91C78.2,18,74.55,19.81,74.18,26.08A219.37,219.37,0,0,0,74.48,60.31Z"/><path class="cls-4" d="M74.48,62.54a2.39,2.39,0,0,1-.59-.08,2.24,2.24,0,0,1-1.63-1.94A219.91,219.91,0,0,1,72,26c.21-3.57,1.41-6.08,3.55-7.46,2.55-1.63,6.14-1.52,11,.36A97.9,97.9,0,0,1,106.09,29a2.23,2.23,0,0,1-.22,3.82A74.87,74.87,0,0,0,76.42,61.4a1.93,1.93,0,0,1-.13.21A2.25,2.25,0,0,1,74.48,62.54Zm5.29-40.73a3.46,3.46,0,0,0-1.86.43c-.88.57-1.38,1.9-1.5,4a233.91,233.91,0,0,0-.22,27.22A79.91,79.91,0,0,1,100.52,30.7,96.39,96.39,0,0,0,84.85,23,14.79,14.79,0,0,0,79.77,21.81Z"/><g class="cls-1"><path class="cls-2" d="M64.89,76.74c12.46-24.17,32.39-44,55.94-52.09A181,181,0,0,0,84.18,5.71C76,2.55,70.27,2.3,66.69,4.89Q104,15.24,97.76,26.52,75.59,39.12,62.35,76h0c.86.26,1.7.51,2.54.74"/></g><path class="cls-7" d="M264,279.72q1.37-9.53-7.41-19.68-26.07-1.69-48.52,15.23A104,104,0,0,0,197.94,284q39.33-.62,66-4.27"/><path class="cls-7" d="M232.08,83.12v0c-12.55-26.71-35.74-48.32-61.25-57,10.61-7.25,24.93-14.43,39.36-20,14.61-5.67,21.76-2.2,22.49,10.09C234,38.81,234.21,61.12,232.08,83.12Z"/><path class="cls-4" d="M232.08,86.24a3.12,3.12,0,0,1-2.5-1.26l0,0a2.82,2.82,0,0,1-.31-.53c-12.12-25.79-34.9-47-59.44-55.43a3.11,3.11,0,0,1-.75-5.53c10.57-7.22,24.77-14.45,40-20.37,9.07-3.52,15.72-3.79,20.35-.82,3.85,2.48,6,7.06,6.38,13.64,1.54,26,1.35,47.41-.59,67.5a3.11,3.11,0,0,1-2.27,2.7A3,3,0,0,1,232.08,86.24Zm-54.4-60.92c21,8.83,39.71,25.69,52.15,46.84a453.77,453.77,0,0,0-.28-55.88c-.26-4.47-1.45-7.41-3.53-8.74-2.74-1.77-7.83-1.29-14.71,1.39A215.42,215.42,0,0,0,177.68,25.32Z"/><path class="cls-9" d="M219.49,63.4h0c-8.64-11.45-20.89-22.27-33-31a101.57,101.57,0,0,1,20.34-10.93c7.93-3.23,11.87-1.39,12.37,5.31A234.62,234.62,0,0,1,219.49,63.4Z"/><path class="cls-4" d="M219.49,65.63a2.24,2.24,0,0,1-1.82-.94c-9.68-12.81-23-23.64-32.47-30.47a2.22,2.22,0,0,1,0-3.63A103.84,103.84,0,0,1,206,19.41c5.08-2.07,8.87-2.26,11.58-.59,2.27,1.41,3.57,4,3.85,7.8a233.41,233.41,0,0,1,.28,37,2.21,2.21,0,0,1-1.75,2A1.88,1.88,0,0,1,219.49,65.63ZM190.37,32.48c8.27,6.16,18.66,14.84,27.26,25A246.42,246.42,0,0,0,217,27c-.17-2.27-.77-3.73-1.76-4.34s-3-.91-7.55.93A103.25,103.25,0,0,0,190.37,32.48Z"/><g class="cls-1"><path class="cls-2" d="M232.08,83.12v0c-12.33-26.24-34.93-47.56-59.91-56.58.4-.75.82-1.49,1.28-2.22h0c30.56-11.81,59,72.4,54.72-19.07,2.72,2,4.19,5.65,4.5,10.87,1.34,22.71,1.54,45-.59,67"/></g><path class="cls-4" d="M200.13,286.21a3.11,3.11,0,1,1-4.37-4.44q15-14.73,31.9-20.79a71.09,71.09,0,0,1,13.28-3.38c-1.08-.62-2.14-1.29-3.16-2a46.64,46.64,0,0,1,40.54-82.87C292,177,248.63,170,234.39,190a40.42,40.42,0,0,0,22.48,67c2.89.19,12.62,2.48,13,4.1-.35,2.27-10.85,2.59-13.64,2.11a65.25,65.25,0,0,0-26.5,3.68q-15.54,5.6-29.63,19.38"/><path class="cls-4" d="M20.18,113.76a29.06,29.06,0,0,1,16.2-5.41,38.33,38.33,0,0,1,16.92,3.19,2.24,2.24,0,0,1-1.49,4.21h0c-2.6-.68-5.14-1.43-7.72-2a58.73,58.73,0,0,0-7.77-1.35,37.37,37.37,0,0,0-7.91.08,36.69,36.69,0,0,0-7.9,1.87.32.32,0,0,1-.3-.56Z"/><path class="cls-4" d="M51,141.5c-2.69-.12-5.33-.32-8-.36a61.08,61.08,0,0,0-7.89.28,38.08,38.08,0,0,0-15.17,5,.32.32,0,0,1-.44-.11.32.32,0,0,1,.05-.38,30.09,30.09,0,0,1,14.83-8.42A38.62,38.62,0,0,1,43,136.3a37.17,37.17,0,0,1,8.57.78A2.24,2.24,0,0,1,51,141.5Z"/><path class="cls-4" d="M56.33,159c-2.26,1.75-4.62,3.24-6.86,4.8a66.56,66.56,0,0,0-6.47,4.9,41.11,41.11,0,0,0-5.55,5.93,58.72,58.72,0,0,0-4.58,7h0a.33.33,0,0,1-.6-.23,36.93,36.93,0,0,1,2.92-8.19,35.36,35.36,0,0,1,5-7.35,40.49,40.49,0,0,1,6.5-6,57.57,57.57,0,0,1,7.27-4.61h0A2.23,2.23,0,0,1,56.33,159Z"/><path class="cls-4" d="M230.85,107.67A52.15,52.15,0,0,1,241,105.24a60.09,60.09,0,0,1,10.47-.52A59.11,59.11,0,0,1,271.79,109a.31.31,0,0,1,.18.42.32.32,0,0,1-.35.19,89.38,89.38,0,0,0-20-.82c-3.3.25-6.56.73-9.81,1.28s-6.46,1.27-9.71,1.94h0a2.23,2.23,0,0,1-1.21-4.29Z"/><path class="cls-4" d="M158.37,273.72c-11.41,0-23.39-7.47-33.46-21.11-7.78,5.06-19.24,10.76-34.14,17a3.1,3.1,0,0,1-3.43-.69,65.7,65.7,0,0,1-12.92-18.64,3.11,3.11,0,0,1,1.16-3.93c27.47-17.46,56.11-32.55,79.5-24.9,17.31,5.66,27.56,16.63,27.43,29.35a23.19,23.19,0,0,1-16.72,21.85A25.68,25.68,0,0,1,158.37,273.72ZM125.69,245.2a3.48,3.48,0,0,1,.55,0,3.12,3.12,0,0,1,2,1.31c11,16.05,24.33,23.56,35.72,20.1a17,17,0,0,0,12.28-15.93c.11-9.86-8.54-18.59-23.12-23.36-20.33-6.64-47.52,7.47-71.85,22.75A59.31,59.31,0,0,0,90.35,263c15.21-6.45,26.49-12.24,33.53-17.23A3.09,3.09,0,0,1,125.69,245.2Z"/><path class="cls-4" d="M229.65,129a37.26,37.26,0,0,1,9.61-.95,38.16,38.16,0,0,1,9.61,1.52,37.25,37.25,0,0,1,8.86,3.86,35.91,35.91,0,0,1,7.38,6,.33.33,0,0,1,0,.46.33.33,0,0,1-.39,0A45.4,45.4,0,0,0,248,133.5a52.63,52.63,0,0,0-8.77-.6c-2.93,0-5.87.27-8.84.51h0a2.23,2.23,0,0,1-.7-4.4Z"/><path class="cls-4" d="M230.71,149.63a36.82,36.82,0,0,1,6.52,2.21,41.28,41.28,0,0,1,6.12,3.33,33.17,33.17,0,0,1,5.49,4.41,18.07,18.07,0,0,1,3.95,5.79.33.33,0,0,1-.17.43.34.34,0,0,1-.36-.08h0a24.29,24.29,0,0,0-5.08-4.07,48.47,48.47,0,0,0-5.74-2.94c-2-.86-4-1.61-6-2.39s-4.07-1.52-6.08-2.44h0a2.25,2.25,0,0,1,1.43-4.23Z"/><g class="cls-1"><path class="cls-2" d="M302.77,269.79q2-10.53-4.76-23.44c.6,13.62-3.28,20.28-11.27,22a546.15,546.15,0,0,1-88.85,12.48q10.65,6.94,66.07-1.15,29-4.61,38.81-9.94"/></g><path class="cls-4" d="M170.16,287.09h-.26a3.13,3.13,0,0,1-2.86-3.37,56.26,56.26,0,0,0-1.25-15.13,3.12,3.12,0,1,1,6.13-1.21,62.24,62.24,0,0,1,1.34,16.85A3.12,3.12,0,0,1,170.16,287.09Z"/><path class="cls-10" d="M355,278.69q-4.16,9.53-8.11,18.59-6.8,58,34.28,65.71-3.7-10.69-6.27-16.4,9.19.65,12.67-.42Q349.2,335.69,355,278.69Z"/><path class="cls-4" d="M381.14,365.22a1.84,1.84,0,0,1-.41,0c-28.61-5.37-40.75-28.3-36.08-68.16a2,2,0,0,1,.17-.63l8.11-18.59a2.23,2.23,0,0,1,4.26,1.12c-3.76,37.08,6.36,58.38,30.94,65.1a2.23,2.23,0,0,1,.06,4.29c-2.09.63-5.34.87-9.86.7,1.44,3.51,3.08,7.95,4.92,13.25a2.23,2.23,0,0,1-2.11,3ZM349,297.87c-4.09,35.53,5.29,55.89,28.66,62.06-1.87-5.22-3.5-9.39-4.86-12.42a2.23,2.23,0,0,1,2.19-3.14l2,.12c-17-8.77-25.35-26.67-25-53.42Z"/><g class="cls-5"><path class="cls-6" d="M346,307.72q-1.71,39.72,23.17,51.49c1.05-.61,2.14-1.29,3.26-2q-25.21-10.92-24.63-62.05-1.05,6.63-1.8,12.61"/></g><g class="cls-1"><path class="cls-2" d="M353.42,282.25l-3.69,8.46v0h0c-.32,23.89,8,37.46,15.6,49,3.23,4.91,10.1,15.18,5.87,20.32,4.37,1.55,4.14,1.8,9.95,2.89q-3.7-10.69-6.27-16.4,9.19.65,12.67-.42Q349.28,335.72,355,278.92q-.76,1.62-1.53,3.33"/></g><path class="cls-11" d="M63.18,236.25c22.46,0,40.67,8.19,40.67,18.3,1,34.06-7.37,51.82-25,54a137.18,137.18,0,0,1-23.92.85c-25.5-1.3-32.4-34.59-32.4-54.84C22.51,244.44,40.72,236.25,63.18,236.25Z"/><path class="cls-4" d="M62.11,312.69q-3.66,0-7.36-.18c-12.43-.64-22.27-8.3-28.46-22.16s-6.91-29.7-6.91-35.8c0-12.21,18.83-21.42,43.8-21.42s43.74,9.18,43.79,21.37c1,35.52-8.3,54.75-27.76,57.14A138.31,138.31,0,0,1,62.11,312.69Zm1.07-73.31c-22.13,0-37.55,8-37.55,15.17,0,18.65,6.2,50.54,29.44,51.72a135.16,135.16,0,0,0,23.38-.82c15.94-2,23.22-18.58,22.28-50.81v-.09C100.73,247.37,85.3,239.38,63.18,239.38Z"/><path class="cls-6" d="M54.91,309.39c-25.5-1.3-32.4-34.59-32.4-54.84,0-5.09,4.61-9.68,12.05-13Q19.45,268.22,81.9,270q-26.66,7.59-50.1-4.59.45,30.56,23.11,44"/><path class="cls-4" d="M63.18,269.21c-19.79,0-34.72-7.11-34.72-16.53s14.93-16.53,34.72-16.53,34.71,7.1,34.71,16.53S83,269.21,63.18,269.21Zm0-26.82c-17.64,0-28.47,6-28.47,10.29S45.54,263,63.18,263s28.47-6,28.47-10.28S80.82,242.39,63.18,242.39Z"/><path class="cls-12" d="M92.87,257.27c-4.42,5.14-16,8.81-29.69,8.81-14.74,0-27.12-4.28-30.61-10.07C52.43,246.12,73.23,246.05,92.87,257.27Z"/><path class="cls-4" d="M63.18,268.48c-15.49,0-28.61-4.51-32.66-11.23a2.37,2.37,0,0,1-.25-1.91,2.4,2.4,0,0,1,1.23-1.47c21.06-10.49,42.69-10,62.56,1.31a2.4,2.4,0,0,1,1.17,1.68,2.36,2.36,0,0,1-.54,2C89.66,264.69,77.29,268.48,63.18,268.48ZM36.45,256.83c4.28,3.66,13.88,6.85,26.73,6.85,10.49,0,20.32-2.35,25.53-5.93C72,249.26,54.06,249,36.45,256.83Z"/><path class="cls-11" d="M103.91,261.91c12.49,1.48,22,9.09,22,18.24,0,10.22-11.84,18.5-26.45,18.5a38.86,38.86,0,0,1-3.93-.2A36.67,36.67,0,0,0,99.77,290c6.17-.29,13-3.2,13-9.74,0-4.44-3.57-8.33-9.25-9.6C103.75,267.89,103.87,265,103.91,261.91Z"/><path class="cls-4" d="M99.45,301.33a41.62,41.62,0,0,1-4.21-.22,2.67,2.67,0,0,1-1.92-4.19,33.7,33.7,0,0,0,3.93-7.83,2.68,2.68,0,0,1,2.39-1.76c3.89-.18,10.46-1.88,10.46-7.07,0-3.27-2.81-6-7.15-7a2.68,2.68,0,0,1-2.08-2.82c.21-2.7.33-5.59.37-8.57a2.68,2.68,0,0,1,3-2.63c14.11,1.68,24.35,10.47,24.35,20.9C128.58,291.83,115.51,301.33,99.45,301.33Zm2.22-8.8c-.48,1.2-1,2.35-1.57,3.44,12.81-.23,23.13-7.24,23.13-15.82,0-6.88-7-13-16.71-15.1,0,1.24-.1,2.45-.17,3.64,5.53,2,9.1,6.45,9.1,11.57C115.45,287.71,108.79,291.68,101.67,292.53Z"/><path class="cls-4" d="M62.11,312.69q-3.66,0-7.36-.18c-12.43-.64-22.27-8.3-28.46-22.16s-6.91-29.7-6.91-35.8c0-12.21,18.83-21.42,43.8-21.42s43.74,9.18,43.79,21.37c1,35.52-8.3,54.75-27.76,57.14A138.31,138.31,0,0,1,62.11,312.69Zm1.07-73.31c-22.13,0-37.55,8-37.55,15.17,0,18.65,6.2,50.54,29.44,51.72a135.16,135.16,0,0,0,23.38-.82c15.94-2,23.22-18.58,22.28-50.81v-.09C100.73,247.37,85.3,239.38,63.18,239.38Z"/><g class="cls-1"><path class="cls-2" d="M95.55,298.4a36.23,36.23,0,0,0,4.22-8.4c6.17-.29,13-3.2,13-9.74,0-4.44-3.57-8.33-9.25-9.6q.25-3.24.34-6.75c8.21,3.14,13.78,9.23,13.78,16.24,0,9.18-9.56,16.8-22.1,18.25"/></g><g class="cls-5"><path class="cls-6" d="M54.79,210.21c7.1-4.78,8.9-11.05,2.75-16-3.24-2.63-7.34-5-4.93-7.88,2.61-3.13,5.81-5.63,4.72-9.56a8,8,0,0,0-9-5.75c-4,.65-7.38,4.26-6.72,8.27,2,12.23-2.32,15.64-11.54,20.13-8.64,4.2-7.73,17.5-2.63,25.63s15.09,5.83,24.23,8.77c8.22,2.64-1.46,16.33,1.65,24.39,3,7.81,12.25,1.93,10.83-3.24-.88-3.23-5.28-8.1-2.39-13.51,6.55-12.27,5.84-15.45-7.6-20C48.14,219.39,49.27,213.87,54.79,210.21Z"/><path class="cls-4" d="M58.06,264.63c-2.71,0-5.63-1.41-7.21-5.5s-.48-9.24.52-13.68c1.52-6.72,1.42-8.51-.49-9.12a48.67,48.67,0,0,0-8.53-1.64c-6.41-.84-13-1.71-17.14-8.26-3.86-6.14-5.27-14.39-3.51-20.52A13.79,13.79,0,0,1,28.93,197c8.86-4.32,11.81-6.76,10.07-17.28a9.17,9.17,0,0,1,1.69-6.91,11.15,11.15,0,0,1,7.24-4.44,10.65,10.65,0,0,1,12,7.68c1.3,4.66-1.6,7.89-3.93,10.49-.43.49-.88,1-1.3,1.49l-.07.09a15.23,15.23,0,0,0,3.13,2.83l1.5,1.17c4.09,3.33,4.82,6.84,4.71,9.2-.18,4-2.83,7.89-7.66,11.14h0c-2.57,1.7-3.59,3.6-3.45,4.64s1.45,1.56,2.23,1.82c6.77,2.29,11.29,4.5,12.87,8.48s-.11,8.45-3.77,15.3c-1.38,2.58-.42,4.92,1.2,8.19a20.45,20.45,0,0,1,1.42,3.35c1.2,4.37-2.22,8.7-6.15,10A8.32,8.32,0,0,1,58.06,264.63Zm-8.43-91.07a6.07,6.07,0,0,0-.85.06A5.86,5.86,0,0,0,45,175.91a3.83,3.83,0,0,0-.75,2.9c2.36,14.29-3.9,18.54-13,23a8.44,8.44,0,0,0-4.42,5.6c-1.35,4.69-.15,11.35,2.89,16.2,2.77,4.42,7.42,5,13.3,5.8a52.33,52.33,0,0,1,9.48,1.85c7,2.27,5.39,9.55,4.07,15.4-.87,3.88-1.78,7.89-.74,10.57.9,2.35,2.2,2.22,3.09,1.93,1.65-.54,3-2.31,2.66-3.49a15,15,0,0,0-1.05-2.4c-1.55-3.14-3.9-7.88-1.12-13.08,2.33-4.35,4.36-8.67,3.51-10.81-.69-1.73-3.56-3.34-9.6-5.38-4.57-1.54-5.61-4.54-5.83-6.19-.45-3.43,1.72-7.09,5.79-9.8,3.27-2.19,5.2-4.72,5.3-6.93.07-1.65-.85-3.26-2.75-4.8-.45-.37-.92-.73-1.39-1.09-2.41-1.86-4.91-3.79-5.22-6.56a5.23,5.23,0,0,1,1.32-4c.46-.56.95-1.11,1.43-1.64,2.32-2.59,3.22-3.82,2.76-5.49A5.32,5.32,0,0,0,49.63,173.56Zm5.16,36.65h0Z"/><g class="cls-1"><path class="cls-2" d="M54.79,210.21c7.1-4.78,8.9-11.05,2.75-16-3.24-2.63-7.34-5-4.93-7.88,2.61-3.13,5.81-5.63,4.72-9.56a8,8,0,0,0-9-5.75,8.49,8.49,0,0,0-3.93,1.74c-.37.34-.74.69-1.12,1.06h0c8.61-2.86,11-.13,3.47,18.06-1.55,3.75,1,4.71,5.47,7.25,2.37,1.34-3.26,7-7.31,14.4-4.22,7.73,1.81,11.26,9.52,13,5.32,1.22,4.14,4.92,3.72,8.37-1.86,15.1-1.38,20.35,1.89,26.69h0a21.62,21.62,0,0,0,2.15-1.32,5.39,5.39,0,0,0,2-5.31c-.88-3.23-5.28-8.1-2.39-13.51,6.55-12.27,5.84-15.45-7.6-20-6-2.05-4.92-7.57.6-11.23"/></g></g><g class="cls-1"><path class="cls-2" d="M223,249.21a41.86,41.86,0,0,1-3.71,15.36,75,75,0,0,1,8.35-3.59,71.09,71.09,0,0,1,13.28-3.38c-1.08-.62-2.14-1.29-3.16-2a46.49,46.49,0,0,1-15.49-18,52.44,52.44,0,0,1,.73,11.65"/></g><path class="cls-4" d="M146.52,195.57c-28,0-50.68-.58-67.81-7.88C58.9,179.24,49.13,162.91,48,136.3c-1.36-31.79,12-66.33,34.79-90.16C100.37,27.77,122,17.65,143.7,17.65c26.53,0,55.1,15.39,76.43,41.16,20.21,24.42,29.51,53.56,24.87,77.94-4.85,25.45-15.45,41.27-33.37,49.77C195.74,194.06,174.93,195.57,146.52,195.57ZM143.7,23.89c-20,0-40,9.44-56.42,26.57C65.59,73.1,52.93,105.89,54.22,136c1,23.93,9.59,38.52,26.94,45.92,16,6.83,38.14,7.38,65.36,7.38,51.09,0,82.8-3.62,92.34-53.75,4.3-22.57-4.5-49.78-23.54-72.78C195.46,38.8,168,23.89,143.7,23.89Z"/><g class="cls-1"><path class="cls-2" d="M68,302.2c20.11,2.38,29.92-9.33,29.34-44.64C94.13,268,84.49,269.81,69.62,272.7q8.13,23.15-1.63,29.5"/></g><path class="cls-6" d="M38.19,275.29c.87-.21,2.18,2.24,2.91,5.46s.63,6-.25,6.2-2.18-2.25-2.91-5.47-.63-6,.25-6.19"/><path class="cls-4" d="M381.14,365.22a1.84,1.84,0,0,1-.41,0c-28.61-5.37-40.75-28.3-36.08-68.16a2,2,0,0,1,.17-.63l8.11-18.59a2.23,2.23,0,0,1,4.26,1.12c-3.76,37.08,6.36,58.38,30.94,65.1a2.23,2.23,0,0,1,.06,4.29c-2.09.63-5.34.87-9.86.7,1.44,3.51,3.08,7.95,4.92,13.25a2.23,2.23,0,0,1-2.11,3ZM349,297.87c-4.09,35.53,5.29,55.89,28.66,62.06-1.87-5.22-3.5-9.39-4.86-12.42a2.23,2.23,0,0,1,2.19-3.14l2,.12c-17-8.77-25.35-26.67-25-53.42Z"/><path class="cls-4" d="M198,287.1a3.11,3.11,0,0,1-.1-6.22c62.73,4.7,116.25-13.49,124.16-23.06q-6,14.3-37.85,21.49-30.6,6.92-86.21,7.79"/><g class="cls-1"><path class="cls-2" d="M175.62,238.77c11.27,32.26-25.58,45.31-47.3,7.78q43.26,33.42,47.3-7.78"/></g><path class="cls-4" d="M168.31,249.22a40.14,40.14,0,0,1,4.78,9.19,11.83,11.83,0,0,1,.33,7.71,2.54,2.54,0,1,1-4.79-1.71c1.78-3.37-5.84-21.64-.32-15.19"/><path class="cls-4" d="M96.44,86.31C87.83,84.7,79.14,92.16,77,103s3.15,20.88,11.76,22.48,17.29-5.84,19.41-16.65S105,87.92,96.44,86.31Z"/><path class="cls-13" d="M95.45,90.83c-2.85.73-4.35,4.33-3.35,8s4.11,6.13,7,5.4,4.34-4.34,3.35-8S98.29,90.1,95.45,90.83Z"/><path class="cls-14" d="M84.2,113.41c-1.38.71-1.71,2.75-.73,4.54s2.87,2.68,4.25,2,1.71-2.74.73-4.54S85.58,112.7,84.2,113.41Z"/><path class="cls-4" d="M139.55,130c-.05,3.57-5,6.38-11.09,6.29s-10.94-3.07-10.88-6.64,5-3.8,11-3.7S139.61,126.44,139.55,130Z"/><path class="cls-4" d="M153.84,134.06a14.09,14.09,0,0,1-2.51,8.77,11.21,11.21,0,0,1-3.85,3.3,12.4,12.4,0,0,1-5,1.34,14.51,14.51,0,0,1-5-.58A16.9,16.9,0,0,1,133,144.8a17.84,17.84,0,0,1-3.75-3.3c-.26-.33-.52-.66-.77-1l-.35-.52-.18-.26c0-.09-.14-.22-.09-.13a1,1,0,0,0,.75.42.94.94,0,0,0,.75-.4l-.09.13-.19.25-.37.52-.8,1a17.54,17.54,0,0,1-3.85,3.18,16.84,16.84,0,0,1-4.58,1.94,14.58,14.58,0,0,1-5,.42,12.29,12.29,0,0,1-4.92-1.49,11.28,11.28,0,0,1-3.74-3.42,14.18,14.18,0,0,1-2.24-8.84.9.9,0,0,1,1-.85.91.91,0,0,1,.81.64v0a14.54,14.54,0,0,0,3.52,6.52,7.84,7.84,0,0,0,5.85,2.16,11.61,11.61,0,0,0,6.14-2.14,12.68,12.68,0,0,0,2.46-2.22l.51-.64.56-.79a5.11,5.11,0,0,1,1.93-1.64,5.37,5.37,0,0,1,2.41-.54,5.26,5.26,0,0,1,2.4.62,5.18,5.18,0,0,1,1.88,1.69l.53.81.5.66a12.31,12.31,0,0,0,2.38,2.29,11.51,11.51,0,0,0,6.07,2.33,7.79,7.79,0,0,0,5.9-2,14.2,14.2,0,0,0,3.73-6.4v0a.9.9,0,0,1,1.14-.57A.89.89,0,0,1,153.84,134.06Z"/><path class="cls-4" d="M114.48,144.47a14.1,14.1,0,0,0,2.76,9c5.24,6.85,16.61,7,22,.3a14.19,14.19,0,0,0,3-8.94,30.17,30.17,0,0,1-13.81-6.48C124.49,141.82,120,144.2,114.48,144.47Z"/><path class="cls-15" d="M117.24,153.48c5.24,6.85,16.61,7,22,.3C134,146.91,122.65,146.76,117.24,153.48Z"/><path class="cls-4" d="M128.38,161.82h-.24c-8.45-.12-16.92-6.12-16.77-17.39l6.22.08c-.1,7.56,5.27,11,10.63,11.09s10.83-3.24,10.93-10.8l6.21.08C145.22,156,136.75,161.82,128.38,161.82Z"/></g></g></svg>