<svg xmlns="http://www.w3.org/2000/svg" viewBox="0 0 99.31 103.98"><defs><style>.cls-1{fill:#010014;}</style></defs><title>logo</title><g id="图层_2" data-name="图层 2"><g id="图层_1-2" data-name="图层 1"><path class="cls-1" d="M46.49,4.89l-.43,51,.43,43.26a48.85,48.85,0,0,0,6.18.5,44.58,44.58,0,0,0,14.42-2.52,45.61,45.61,0,0,0,13.06-6.82,49,49,0,0,0,7.57-7.48A53.18,53.18,0,0,0,94,73.66c.91-1.73,1.89-2.59,2.94-2.59q2.37,0,2.37,2c0,1.44-1.18,3.87-3.56,7.3A61.77,61.77,0,0,1,88,89.61,50.15,50.15,0,0,1,66.33,101.9,53.5,53.5,0,0,1,52,104a51.35,51.35,0,0,1-20.2-4.31A49.93,49.93,0,0,1,7,78a51.86,51.86,0,0,1,.29-52.67A51.36,51.36,0,0,1,52,0,50.82,50.82,0,0,1,87.74,14q7.19,6.69,7.19,9.63a1.91,1.91,0,0,1-.72,1.44,2.31,2.31,0,0,1-1.58.65c-1,0-2.1-.94-3.44-2.81A43.41,43.41,0,0,0,72.9,9.38a47.69,47.69,0,0,0-21.38-5A23.89,23.89,0,0,0,46.49,4.89Z"/></g></g></svg>